<svg xmlns="http://www.w3.org/2000/svg" width="72" height="72" viewBox="0 0 72 72" fill="none"><path d="M33.2911 23.1352C33.2911 28.7268 28.7768 33.2598 23.2081 33.2598C17.6393 33.2598 13.125 28.7268 13.125 23.1352C13.125 17.5437 17.6393 13.0109 23.2081 13.0109C28.7768 13.0109 33.2911 17.5437 33.2911 23.1352Z" fill="#E51636"/><path d="M59.4698 36.2476L61.9989 42.2911C63.9169 46.4635 68.0794 44.854 68.0794 44.854C72.1471 43.1201 70.7786 38.9187 70.7786 38.9187L58.1589 6.3892C55.9095 0.852329 50.903 1.28924 50.903 1.28924C45.8715 1.41775 44.1791 6.0006 44.1791 6.0006C44.1791 6.0006 37.3349 22.4899 34.2873 29.1198C31.2399 35.7495 23.1711 35.8857 23.1711 35.8857C10.386 35.0746 10.5075 23.1316 10.5075 23.1316C11.3249 10.2224 23.1711 10.3789 23.1711 10.3789C27.1469 10.2886 30.4876 12.6808 30.4876 12.6808C34.3469 15.8172 37.353 12.7352 37.353 12.7352C38.1682 11.8144 38.55 10.9176 38.6588 10.0855C39.05 6.89124 36.5485 5.41528 36.5485 5.41528C30.3927 0.579998 23.1711 1.01013 23.1711 1.01013C21.1895 1.01275 14.1666 1.27044 7.69588 7.30083C0.715604 13.8059 1.00164 23.1316 1.00164 23.1316C1.00164 31.4799 6.45701 37.6407 6.45701 37.6407C13.6084 45.8764 23.1711 45.3466 23.1711 45.3466C27.7388 45.3466 31.4273 43.7636 31.4273 43.7636C41.0419 39.5949 43.7045 31.5102 43.7045 31.5102C43.7045 31.5102 49.8588 16.2635 50.3967 15.4771C51.0671 14.497 51.6381 15.4843 51.6381 15.4843C51.6381 15.4843 55.1511 24.4961 55.5449 25.5719C56.0371 26.918 55.0575 26.8452 55.0575 26.8452L50.6586 26.8312C46.3575 27.2677 46.2533 31.3612 46.2533 31.3612C46.2533 31.3612 46.0619 35.9202 50.8495 36.2476" fill="#1B458F"/><path d="M1.50613 53.5644C1.50613 53.5644 2.49442 49.6993 7.00843 49.4799C7.00843 49.4799 9.56397 49.3461 11.506 51.6463C11.506 51.6463 12.3394 52.5472 11.3016 53.4286C11.3016 53.4286 10.437 54.0461 9.66388 53.1524C9.66388 53.1524 8.8227 51.8806 7.00843 51.8628C5.19408 51.8451 3.62445 53.3681 3.62445 55.2641C3.62445 57.1602 5.18644 58.6538 7.00843 58.6635C7.00843 58.6635 8.36038 58.8053 9.58983 57.4684C9.58983 57.4684 10.1196 56.7219 11.067 57.1274C11.067 57.1274 12.2055 57.7046 11.4321 58.9553C11.4321 58.9553 9.8171 61.0705 7.00843 61.0467C4.19968 61.0229 2.82518 59.1896 2.5104 58.8711C2.19554 58.5527 1.30231 57.0935 1.25019 55.2641C1.25019 55.2641 1.23378 54.5139 1.50613 53.5644Z" fill="#1B458F"/><path d="M30.0657 66.201C30.0657 66.201 30.7116 63.741 33.6611 63.6012C33.6611 63.6012 35.3311 63.5163 36.6001 64.9803C36.6001 64.9803 37.1443 65.5533 36.4662 66.1144C36.4662 66.1144 35.9014 66.5074 35.3961 65.9387C35.3961 65.9387 34.8465 65.1296 33.6611 65.118C32.4756 65.1068 31.4499 66.0759 31.4499 67.2826C31.4499 68.4896 32.4706 69.4398 33.6611 69.4462C33.6611 69.4462 34.5444 69.5365 35.3476 68.6856C35.3476 68.6856 35.6941 68.2104 36.313 68.4683C36.313 68.4683 37.057 68.8358 36.5518 69.6317C36.5518 69.6317 35.4961 70.9779 33.6611 70.9628C31.8259 70.9479 30.9277 69.7808 30.7218 69.5782C30.5161 69.3754 29.9325 68.4467 29.8986 67.2826C29.8986 67.2826 29.8877 66.8051 30.0657 66.201Z" fill="#1B458F"/><path d="M68.6892 59.7576C67.9456 60.3534 66.7175 61.0604 65.0869 61.0467C62.278 61.0229 60.9036 59.1896 60.5889 58.8711C60.2739 58.5527 59.3805 57.0935 59.3283 55.2641C59.3283 55.2641 59.3122 54.5139 59.5843 53.5644C59.5843 53.5644 60.5727 49.6993 65.0869 49.4799C65.0869 49.4799 66.7836 49.2084 68.5566 50.6687C68.5566 50.6687 69.6084 51.5256 68.8217 52.3998C68.8217 52.3998 68.1249 53.317 67.0949 52.5142C66.6578 52.194 65.9937 51.8716 65.0869 51.8628C63.2723 51.8451 61.7027 53.3681 61.7027 55.2641C61.7027 57.1602 63.3255 58.7393 65.1478 58.7489C65.1478 58.7489 66.0444 58.8882 67.1158 58.0462C67.1158 58.0462 67.662 57.5414 67.5311 57.1243C67.5311 57.1243 67.5311 56.6632 67.0499 56.6852H65.6069C65.6069 56.6852 64.3982 56.713 64.3982 55.4593C64.3982 54.6535 65.3143 54.4367 65.7658 54.4367C66.2175 54.4367 68.1926 54.4367 68.1926 54.4367C68.1926 54.4367 69.6299 54.3798 69.8922 55.5435C70.0823 56.3862 70.2423 58.3099 68.6892 59.7576Z" fill="#1B458F"/><path d="M34.6483 59.5698C34.6483 60.3175 34.1158 60.9238 33.4589 60.9238C32.8022 60.9238 32.2695 60.3175 32.2695 59.5698V50.8579C32.2695 50.1102 32.8022 49.5039 33.4589 49.5039C34.1158 49.5039 34.6483 50.1102 34.6483 50.8579V59.5698Z" fill="#1B458F"/><path d="M47.3123 59.5698C47.3123 60.3175 46.7801 60.9238 46.1232 60.9238C45.4665 60.9238 44.9336 60.3175 44.9336 59.5698V50.8579C44.9336 50.1102 45.4665 49.5039 46.1232 49.5039C46.7801 49.5039 47.3123 50.1102 47.3123 50.8579V59.5698Z" fill="#1B458F"/><path d="M54.0504 70.1168C54.0504 70.5992 53.7067 70.9902 53.2829 70.9902C52.8595 70.9902 52.5156 70.5992 52.5156 70.1168V64.4965C52.5156 64.0141 52.8595 63.6231 53.2829 63.6231C53.7067 63.6231 54.0504 64.0141 54.0504 64.4965V70.1168Z" fill="#1B458F"/><path d="M49.4783 65.1181L49.4779 70.1101C49.4779 70.5776 49.1346 70.957 48.7108 70.957C48.287 70.957 47.9435 70.5776 47.9435 70.1103V65.1221L47.9711 65.121L46.3525 65.1225C45.9422 65.1227 45.6094 64.792 45.6094 64.3839C45.6089 63.9761 45.9411 63.6452 46.3512 63.645L51.1278 63.641C51.5382 63.6408 51.8705 63.9709 51.871 64.379C51.871 64.7868 51.5392 65.1183 51.1291 65.1186L49.474 65.1198L49.4783 65.1181Z" fill="#1B458F"/><path d="M39.2614 70.1266C39.2614 70.609 38.9179 71 38.4941 71C38.0707 71 37.7266 70.609 37.7266 70.1266V64.5063C37.7266 64.0239 38.0707 63.6329 38.4941 63.6329C38.9179 63.6329 39.2614 64.0239 39.2614 64.5063V70.1266Z" fill="#1B458F"/><path d="M22.0039 51.3316L22.0098 50.6355C22.0098 50.6355 21.9952 49.5755 23.1695 49.4988C23.1695 49.4988 24.2498 49.5119 24.3678 50.6594L24.3769 56.4989C24.3769 56.4989 24.3303 57.4151 24.9762 58.036C24.9762 58.036 25.4178 58.5685 26.3225 58.5855C26.3225 58.5855 27.1048 58.6504 27.7578 57.9333C27.7578 57.9333 28.2454 57.4551 28.2465 56.7039C28.2476 55.9525 28.2476 50.8709 28.2476 50.8709C28.2476 50.8709 28.2117 49.5625 29.4504 49.5029C29.4504 49.5029 30.6376 49.501 30.6376 50.707C30.6376 51.9132 30.6209 56.2735 30.6209 56.2735C30.6209 56.2735 30.9359 60.6818 26.4291 60.9145C26.4291 60.9145 24.777 61.1073 23.2903 59.7378C23.2903 59.7378 22.0076 58.3468 22.0076 56.7181C22.0076 55.0894 22.0039 51.3316 22.0039 51.3316Z" fill="#1B458F"/><path d="M24.3758 50.7056C24.3758 51.3729 23.8371 51.9141 23.1723 51.9141C22.5076 51.9141 21.9688 51.3729 21.9688 50.7056C21.9688 50.0382 22.5076 49.497 23.1723 49.497C23.8371 49.497 24.3758 50.0382 24.3758 50.7056Z" fill="#1B458F"/><path d="M56.0699 50.8578C56.0699 50.8578 56.0248 49.5095 57.2594 49.5038C57.2594 49.5038 58.4506 49.5347 58.4484 50.8578C58.4464 52.181 58.4144 59.8609 58.4144 59.8609C58.4144 59.8609 58.3626 60.6789 57.5476 60.8827C57.5476 60.8827 56.8232 61.1598 56.0694 60.1293C55.2264 58.9772 53.2786 56.6425 53.2786 56.6425L51.2427 54.0991C51.2427 54.0991 51.1598 53.9914 51.1678 54.1509V59.5697C51.1678 59.5697 51.1339 60.9318 49.9787 60.9238C48.8241 60.9154 48.781 59.6462 48.7854 59.5012C48.7891 59.356 48.7854 56.8664 48.7854 56.8664L48.8024 50.6537C48.8024 50.6537 48.9447 49.4791 49.9787 49.5038C49.9787 49.5038 50.4247 49.3877 51.093 50.1652C51.7614 50.9426 52.9114 52.3745 52.9114 52.3745L55.9517 56.1687C55.9517 56.1687 56.0766 56.3606 56.0707 56.0797L56.0699 50.8578Z" fill="#1B458F"/><path d="M68.3443 64.5078C68.3443 64.5078 68.3154 63.6473 69.1033 63.6438C69.1033 63.6438 69.8635 63.6635 69.8622 64.5078C69.8608 65.3521 69.8404 70.2534 69.8404 70.2534C69.8404 70.2534 69.8073 70.7756 69.2873 70.9052C69.2873 70.9052 68.8252 71.0822 68.3439 70.4246C67.8062 69.6895 66.5631 68.1996 66.5631 68.1996L65.2638 66.5763C65.2638 66.5763 65.2111 66.5074 65.2161 66.6093V70.0674C65.2161 70.0674 65.1941 70.9367 64.4573 70.9316C63.72 70.9264 63.6928 70.1164 63.6954 70.0237C63.6981 69.931 63.6954 68.3423 63.6954 68.3423L63.7066 64.3775C63.7066 64.3775 63.7971 63.6281 64.4573 63.6438C64.4573 63.6438 64.7416 63.5697 65.168 64.0656C65.5944 64.5618 66.3284 65.4758 66.3284 65.4758L68.2688 67.8971C68.2688 67.8971 68.3487 68.0195 68.3447 67.8402L68.3443 64.5078Z" fill="#1B458F"/><path d="M41.2773 54.3007C43.2971 54.8184 43.8089 56.1733 43.8089 57.4523C43.8089 59.4314 42.4893 60.9082 39.8228 60.9082C37.022 60.9082 35.7695 59.3247 35.7695 58.1373C35.7695 57.5282 36.1396 57.1966 36.5806 57.1146C37.5346 56.9372 37.5427 57.6875 38.064 58.1375C38.4143 58.4404 39.1132 58.9149 39.9079 58.9149C41.0523 58.9149 41.5914 58.5001 41.5914 57.7694C41.5914 57.3277 41.4121 56.7061 40.6578 56.493L38.167 55.7774C36.1603 55.1989 35.7965 53.9504 35.7965 52.7782C35.7965 50.3422 37.7898 49.4288 39.6613 49.4288C41.3849 49.4288 43.5361 50.3973 43.5361 51.8591C43.5361 52.4833 42.8899 52.7409 42.3533 52.6957C41.9371 52.6608 41.5068 52.3416 40.8907 51.8591C40.574 51.6112 40.0856 51.3865 39.3866 51.3865C38.3633 51.3865 37.9034 51.8936 37.9034 52.6546C37.9034 53.4161 38.7323 53.646 39.4325 53.8287L41.2773 54.3007Z" fill="#1B458F"/><path d="M19.1796 66.7538C20.446 67.0785 20.7667 67.9279 20.7667 68.7296C20.7667 69.9706 19.9394 70.8965 18.2677 70.8965C16.5118 70.8965 15.7266 69.9037 15.7266 69.1593C15.7266 68.7775 15.9584 68.5694 16.235 68.5181C16.8331 68.407 16.8382 68.8772 17.1649 69.1595C17.3847 69.3492 17.823 69.6469 18.321 69.6469C19.0386 69.6469 19.3764 69.3866 19.3764 68.9285C19.3764 68.6518 19.264 68.2621 18.7913 68.1283L17.2294 67.6798C15.9715 67.317 15.7435 66.5344 15.7435 65.7993C15.7435 64.2722 16.9931 63.6996 18.1664 63.6996C19.2471 63.6996 20.5957 64.3067 20.5957 65.223C20.5957 65.6144 20.1906 65.7761 19.854 65.7478C19.5933 65.7257 19.3236 65.5257 18.9373 65.223C18.7387 65.0676 18.4325 64.9268 17.9943 64.9268C17.3527 64.9268 17.0644 65.2448 17.0644 65.7222C17.0644 66.1993 17.584 66.3434 18.023 66.4581L19.1796 66.7538Z" fill="#1B458F"/><path d="M13.2304 66.7538C14.4968 67.0785 14.8175 67.9279 14.8175 68.7296C14.8175 69.9706 13.9902 70.8965 12.3185 70.8965C10.5626 70.8965 9.77734 69.9037 9.77734 69.1593C9.77734 68.7775 10.0092 68.5694 10.2858 68.5181C10.8839 68.407 10.889 68.8772 11.2157 69.1595C11.4355 69.3492 11.8737 69.6469 12.3718 69.6469C13.0894 69.6469 13.4272 69.3866 13.4272 68.9285C13.4272 68.6518 13.3148 68.2621 12.842 68.1283L11.2802 67.6798C10.0223 67.317 9.79428 66.5344 9.79428 65.7993C9.79428 64.2722 11.0439 63.6996 12.2172 63.6996C13.2979 63.6996 14.6465 64.3067 14.6465 65.223C14.6465 65.6144 14.2414 65.7761 13.9048 65.7478C13.644 65.7257 13.3744 65.5257 12.9881 65.223C12.7895 65.0676 12.4833 64.9268 12.0451 64.9268C11.4034 64.9268 11.1152 65.2448 11.1152 65.7222C11.1152 66.1993 11.6348 66.3434 12.0737 66.4581L13.2304 66.7538Z" fill="#1B458F"/><path d="M15.289 55.2652H16.5196C17.5856 55.2652 18.064 54.8775 18.064 54.8775C19.3606 53.8303 18.5803 52.5757 18.5803 52.5757C18.1947 51.8119 16.7673 51.6701 16.7673 51.6701L15.289 51.6615V55.2652ZM12.9103 50.881C12.9103 50.881 12.8415 49.2947 14.7575 49.5071C14.7575 49.5071 16.4949 49.5297 16.6837 49.5321C16.8724 49.5347 18.7712 49.4287 20.0619 50.8194C20.0619 50.8194 21.0614 51.7666 20.9204 53.8233C20.9204 53.8233 21.0237 55.7764 18.9003 56.7947L20.8773 58.8195C20.8773 58.8195 21.7565 59.6527 20.9109 60.5676C20.9109 60.5676 20.0608 61.3946 19.1954 60.5081C18.33 59.6216 16.2555 57.4976 16.2555 57.4976C16.2555 57.4976 16.241 57.4137 15.9505 57.4189C15.66 57.4243 15.3764 57.4065 15.3764 57.4065C15.3764 57.4065 15.289 57.3872 15.289 57.6147C15.289 57.8423 15.2871 59.6502 15.2871 59.6502C15.2871 59.6502 15.339 60.8311 14.0997 60.9238C14.0997 60.9238 12.9458 60.8829 12.9209 59.7296C12.8961 58.576 12.9103 50.881 12.9103 50.881Z" fill="#1B458F"/><path d="M25.3238 65.0464C24.1144 65.0464 23.134 66.031 23.134 67.2449C23.134 68.4592 24.1144 69.4436 25.3238 69.4436C26.5332 69.4436 27.5134 68.4592 27.5134 67.2449C27.5134 66.031 26.5332 65.0464 25.3238 65.0464ZM29.0228 67.2449C29.0228 69.2961 27.3667 70.959 25.3238 70.959C23.2812 70.959 21.625 69.2961 21.625 67.2449C21.625 65.1937 23.2812 63.5309 25.3238 63.5309C27.3667 63.5309 29.0228 65.1937 29.0228 67.2449Z" fill="#1B458F"/><path d="M58.8159 65.0464C57.6063 65.0464 56.6259 66.031 56.6259 67.2449C56.6259 68.4592 57.6063 69.4436 58.8159 69.4436C60.0253 69.4436 61.0057 68.4592 61.0057 67.2449C61.0057 66.031 60.0253 65.0464 58.8159 65.0464ZM62.5146 67.2449C62.5146 69.2961 60.8588 70.959 58.8159 70.959C56.773 70.959 55.1172 69.2961 55.1172 67.2449C55.1172 65.1937 56.773 63.5309 58.8159 63.5309C60.8588 63.5309 62.5146 65.1937 62.5146 67.2449Z" fill="#1B458F"/><path d="M39.889 69.7183C39.508 70.5207 40.1911 70.8669 40.1911 70.8669C40.8557 71.1514 41.234 70.4597 41.234 70.4597L41.604 69.6928L45.318 69.6925L45.702 70.4785C46.1726 71.2244 46.8073 70.8279 46.8073 70.8279C47.3948 70.3935 47.0522 69.7408 47.0522 69.7408C47.0522 69.7408 44.7028 64.9501 44.3522 64.2357C44.0013 63.521 43.4593 63.6195 43.4593 63.6195C42.7024 63.6128 42.5065 64.2424 42.5065 64.2424C42.5065 64.2424 40.2699 68.9158 39.889 69.7183ZM42.3361 68.1501L43.4371 65.857L44.5515 68.1501H42.3361Z" fill="#1B458F"/><path d="M1.90458 69.7183C1.52365 70.5207 2.20685 70.8669 2.20685 70.8669C2.87118 71.1514 3.24955 70.4597 3.24955 70.4597L3.61945 69.6928L7.33351 69.6925L7.71757 70.4785C8.18803 71.2244 8.82279 70.8279 8.82279 70.8279C9.4106 70.3935 9.06767 69.7408 9.06767 69.7408C9.06767 69.7408 6.71858 64.9501 6.36773 64.2357C6.017 63.521 5.47477 63.6195 5.47477 63.6195C4.71818 63.6128 4.52201 64.2424 4.52201 64.2424C4.52201 64.2424 2.28551 68.9158 1.90458 69.7183ZM4.35153 68.1501L5.45265 65.857L6.56723 68.1501H4.35153Z" fill="#1B458F"/></svg>