<svg xmlns="http://www.w3.org/2000/svg" viewBox="0 0 530 177"><title>Dok Logo</title><defs><path id="a" d="M0 0h530v177H0z"/></defs><g fill="#000" fill-rule="nonzero"><path d="M.4.2v175.848h56.916v-23.46H27.124V23.66h30.192V.2zM169.516 64.956c0 6.12 3.468 13.26 5.508 19.176l-4.284 1.428c-2.04-5.712-3.264-14.076-7.548-18.36-7.344-7.956-17.952-13.26-31.62-13.26-29.376 0-50.184 25.092-50.796 54.468-.612 30.192 20.4 53.856 51 53.856 13.668 0 24.072-4.692 31.62-12.648 4.284-4.284 5.304-12.648 7.14-18.564l4.488 1.428c-2.04 5.916-5.508 13.056-5.508 19.176V159l25.092-.204v-147.9l-25.092.204zm-34.476 73.848c-19.176 0-29.376-12.852-29.376-29.988 0-17.34 10.2-31.62 29.376-31.62s29.988 14.28 29.988 31.62c0 17.136-10.812 29.988-29.988 29.988M213.172 107.796c0 32.844 23.052 54.468 58.14 54.468 35.292 0 58.344-22.848 58.344-54.468 0-31.416-23.052-53.856-58.344-53.856-35.088 0-58.14 21.012-58.14 53.856m26.52 0c0-16.728 8.976-29.784 31.62-29.784s31.824 13.056 31.824 29.784-9.18 30.396-31.824 30.396c-22.44 0-31.62-13.668-31.62-30.396M379.84 82.296c-5.712 4.896-9.384 13.668-12.444 20.604l-4.284-1.836c3.264-6.936 7.344-15.504 7.344-23.052V11.1h-25.092V159h25.092l-.408-38.964 9.996-8.772 39.168 47.94h31.212l-53.448-62.628 42.84-39.372h-31.212zM529.168 176.048V.2h-56.712v23.46h29.988v128.928h-29.988v23.46z"/></g></svg>
